<svg xmlns:xlink="http://www.w3.org/1999/xlink" xmlns="http://www.w3.org/2000/svg" fill="#EADDC7" width="48" height="48" viewBox="0 0 48 48"><title>bag</title><path d="M20.399 40.8c-0.522 0-1.003-0.343-1.153-0.871-0.182-0.637 0.187-1.301 0.824-1.484l16.8-4.8c0.637-0.182 1.301 0.187 1.483 0.824s-0.187 1.301-0.824 1.483l-16.8 4.8c-0.11 0.031-0.221 0.046-0.33 0.046zM43.196 39.5l-2.4-28.8h-0.001c-0.034-0.411-0.279-0.784-0.659-0.974l-4.8-2.4c-0.593-0.296-1.314-0.056-1.61 0.537s-0.056 1.314 0.537 1.61l1.672 0.836-3.019 0.604c-0.071-0.498-0.148-1.004-0.232-1.51-1.069-6.415-2.684-9.403-5.084-9.403-0.958 0-1.857 0.404-2.598 1.167-1.687 1.738-2.734 5.436-3.2 11.303-0.018 0.227-0.035 0.452-0.050 0.675l-5.9 1.18-4.447-2.964 9.255-2.057c0.647-0.144 1.055-0.785 0.911-1.432s-0.785-1.055-1.432-0.911l-2.46 0.547c0.662-3.231 1.645-5.108 2.72-5.108 0.129 0 0.393 0.172 0.712 0.659 0.364 0.554 1.108 0.708 1.662 0.344s0.708-1.108 0.344-1.662c-0.945-1.439-2-1.741-2.718-1.741-1.101 0-2.662 0.532-3.85 3.066-0.586 1.25-1.062 2.933-1.418 5.009l-6.993 1.554c-0.469 0.104-0.831 0.479-0.919 0.951-0.008 0.043-0.013 0.086-0.016 0.128l-0.001-0-2.4 31.2c-0.037 0.486 0.223 0.947 0.66 1.165l9.6 4.8c0.168 0.084 0.352 0.127 0.537 0.127 0.106 0 0.212-0.014 0.316-0.042l26.4-7.2c0.558-0.152 0.928-0.681 0.88-1.257zM26.725 2.839c0.381-0.393 0.682-0.439 0.875-0.439 0.195 0 0.723 0.391 1.323 1.869 0.531 1.309 0.999 3.163 1.391 5.511 0.090 0.537 0.171 1.075 0.245 1.605l-6.363 1.273c0.544-6.835 1.819-9.085 2.53-9.819zM9.439 12.935l4.961 3.307v28.616l-7.142-3.571 2.181-28.352zM16.8 45.229v-28.645l4.821-0.964c-0.101 2.704-0.043 4.704-0.040 4.817 0.020 0.65 0.553 1.164 1.199 1.164 0.012 0 0.025-0 0.037-0.001 0.662-0.020 1.183-0.573 1.163-1.236-0.001-0.029-0.066-2.295 0.064-5.229l6.808-1.361c0.259 2.422 0.349 4.256 0.351 4.284 0.032 0.662 0.592 1.173 1.256 1.141 0.662-0.032 1.173-0.594 1.141-1.256-0.006-0.119-0.102-2.075-0.384-4.642l5.301-1.060 2.205 26.464-23.921 6.524z" fill="#EADDC7"></path></svg>