<svg xmlns:xlink="http://www.w3.org/1999/xlink" xmlns="http://www.w3.org/2000/svg" aria-hidden="true" role="img" focusable="false" viewBox="0 0 32 32" width="64"  height="64" ><path d="M26.1 0h-20.2c-0.95 0-1.75 0.8-1.75 1.75v28.5c0 0.95 0.8 1.75 1.75 1.75h20.2c0.95 0 1.75-0.8 1.75-1.75v-28.5c0-0.95-0.8-1.75-1.75-1.75zM26.35 30.25c0 0.15-0.1 0.25-0.25 0.25h-20.2c-0.15 0-0.25-0.1-0.25-0.25v-28.5c0-0.15 0.1-0.25 0.25-0.25h20.2c0.15 0 0.25 0.1 0.25 0.25v28.5z"></path><path d="M21.55 8.3h-8.95v-2c0-0.4-0.35-0.75-0.75-0.75s-0.75 0.35-0.75 0.75v2h-0.65c-0.4 0-0.75 0.35-0.75 0.75s0.35 0.75 0.75 0.75h0.65v2c0 0.4 0.35 0.75 0.75 0.75s0.75-0.35 0.75-0.75v-2h8.95c0.4 0 0.75-0.35 0.75-0.75s-0.35-0.75-0.75-0.75z"></path><path d="M21.55 15.25h-0.65v-2c0-0.4-0.35-0.75-0.75-0.75s-0.75 0.35-0.75 0.75v2h-8.95c-0.4 0-0.75 0.35-0.75 0.75s0.35 0.75 0.75 0.75h8.95v2c0 0.4 0.35 0.75 0.75 0.75s0.75-0.35 0.75-0.75v-2h0.65c0.4 0 0.75-0.35 0.75-0.75s-0.35-0.75-0.75-0.75z"></path><path d="M21.55 22.2h-8.95v-2c0-0.4-0.35-0.75-0.75-0.75s-0.75 0.35-0.75 0.75v2h-0.65c-0.4 0-0.75 0.35-0.75 0.75s0.35 0.75 0.75 0.75h0.65v2c0 0.4 0.35 0.75 0.75 0.75s0.75-0.35 0.75-0.75v-2h8.95c0.4 0 0.75-0.35 0.75-0.75s-0.35-0.75-0.75-0.75z"></path></svg>