<svg xmlns:xlink="http://www.w3.org/1999/xlink" xmlns="http://www.w3.org/2000/svg" fill="#EADDC7" width="48" height="48" viewBox="0 0 48 48"><title>hanger</title><path d="M38.4 43.2h-31.2c-0.663 0-1.2-0.537-1.2-1.2s0.537-1.2 1.2-1.2h31.2c0.663 0 1.2 0.537 1.2 1.2s-0.537 1.2-1.2 1.2zM43.229 35.341l-15.892-12.217c-0.929-0.714-2.084-1.187-3.337-1.378v-1.346c0-1.144 0.694-1.72 1.92-2.64 1.283-0.962 2.88-2.16 2.88-4.56 0-3.308-2.692-6-6-6s-6 2.692-6 6c0 0.663 0.537 1.2 1.2 1.2s1.2-0.537 1.2-1.2c0-1.985 1.615-3.6 3.6-3.6s3.6 1.615 3.6 3.6c0 1.144-0.694 1.72-1.92 2.64-1.283 0.962-2.88 2.16-2.88 4.56v1.327c-1.26 0.17-2.429 0.625-3.369 1.323l-15.821 11.756c-1.374 1.021-2.411 3.082-2.411 4.795v2.4c0 0.416 0.216 0.803 0.571 1.022s0.797 0.237 1.169 0.050l17.313-8.717c0.962-0.484 2.328-0.762 3.748-0.762s2.786 0.278 3.748 0.762l17.313 8.717c0.17 0.086 0.355 0.128 0.54 0.128 0.219 0 0.437-0.060 0.63-0.178 0.355-0.218 0.571-0.605 0.571-1.022v-1.845c0-1.705-1.019-3.775-2.371-4.814zM27.627 32.212c-1.305-0.657-3.019-1.019-4.827-1.019s-3.522 0.362-4.827 1.019l-15.573 7.841v-0.452c0-0.94 0.687-2.307 1.442-2.868l15.821-11.756c0.804-0.597 1.892-0.926 3.064-0.926 1.193 0 2.34 0.356 3.147 0.977l15.892 12.217c0.723 0.556 1.385 1.866 1.431 2.807l-15.571-7.839z" fill="#EADDC7"></path></svg>