<svg xmlns:xlink="http://www.w3.org/1999/xlink" xmlns="http://www.w3.org/2000/svg" aria-hidden="true" role="img" focusable="false" viewBox="0 0 64 64" fill="currentColor" width="12"  height="12" ><path class="st0" d="M-9.5,69.7" fill="#EADDC7"></path><g fill="#EADDC7"><path d="M32,36.3c8.5,0,15.4-6.9,15.4-15.4S40.5,5.6,32,5.6c-8.5,0-15.4,6.9-15.4,15.4S23.5,36.3,32,36.3z M32,8.6
				c6.8,0,12.4,5.5,12.4,12.4S38.8,33.3,32,33.3c-6.8,0-12.4-5.5-12.4-12.4S25.2,8.6,32,8.6z" fill="#EADDC7"></path><path d="M63.5,55.8C54.8,48.4,43.6,44.4,32,44.4S9.2,48.4,0.5,55.8c-0.6,0.5-0.7,1.5-0.2,2.1s1.5,0.7,2.1,0.2
				c8.2-6.9,18.6-10.7,29.5-10.7c10.9,0,21.4,3.8,29.5,10.7c0.3,0.2,0.6,0.4,1,0.4c0.4,0,0.8-0.2,1.1-0.5
				C64.2,57.3,64.1,56.3,63.5,55.8z" fill="#EADDC7"></path></g></svg>