<svg xmlns:xlink="http://www.w3.org/1999/xlink" xmlns="http://www.w3.org/2000/svg" aria-hidden="true" role="img" focusable="false" viewBox="0 0 64 64" width="64"  height="64" ><path d="M34.1,32L63.6,2.6c0.6-0.6,0.6-1.5,0-2.1c-0.6-0.6-1.5-0.6-2.1,0L32,29.9L2.6,0.4C2-0.1,1-0.1,0.4,0.4C-0.1,1-0.1,2,0.4,2.6L29.9,32L0.4,61.4c-0.6,0.6-0.6,1.5,0,2.1C0.7,63.9,1.1,64,1.5,64s0.8-0.1,1.1-0.4L32,34.1l29.4,29.4c0.3,0.3,0.7,0.4,1.1,0.4s0.8-0.1,1.1-0.4c0.6-0.6,0.6-1.5,0-2.1L34.1,32z" fill="#5E4D30"></path></svg>