<svg xmlns:xlink="http://www.w3.org/1999/xlink" xmlns="http://www.w3.org/2000/svg" viewBox="0 0 64 64" width="64"  height="64" > <path d="M60.4,9.7c-0.3-0.3-0.8-0.5-1.3-0.4l-15.3,2.1c-4-6-11.4-12.9-23.4-11.1c-0.8,0.1-1.4,0.9-1.3,1.7c0.1,0.8,0.9,1.4,1.7,1.3 	c9.8-1.5,16,3.5,19.7,8.5l-8.8,1.2c-0.3,0-0.6,0.2-0.8,0.4L3.6,39.4c-0.3,0.3-0.5,0.7-0.5,1.1s0.2,0.8,0.5,1.1l23.3,22 	c0.3,0.3,0.7,0.4,1,0.4s0.7-0.1,1-0.4l27.4-25.9c0.2-0.2,0.4-0.5,0.5-0.9l4-25.8C60.9,10.5,60.8,10,60.4,9.7z M54,35.8l-26,24.6 	l-21.1-20L32.7,16l9.7-1.4c1.7,3,2.5,5.4,2.6,5.7c0.2,0.6,0.8,1.1,1.4,1.1c0.1,0,0.3,0,0.4-0.1c0.8-0.2,1.2-1.1,1-1.9 	c0-0.1-0.7-2.3-2.3-5.2l12-1.7L54,35.8z" fill="#EADDC7"></path> </svg>