<svg xmlns:xlink="http://www.w3.org/1999/xlink" xmlns="http://www.w3.org/2000/svg" aria-hidden="true" role="img" focusable="false" viewBox="0 0 64 64" width="32"  height="32" ><g fill="#949494"><path d="M36.2,64h-7.9c-1.8,0-3.4-1.6-3.4-3.6V36h-6.7c-1.8,0-3.4-1.6-3.4-3.6v-7c0-2,1.5-3.6,3.4-3.6h6.6v-6.7
			C24.8,6.1,30.2,0,38.2,0h6c1.8,0,3.4,1.6,3.4,3.6v8.2c0,2-1.5,3.6-3.4,3.6H40c-0.2,0-0.3,0-0.5,0c0,0.2,0,0.5,0,0.6v5.8h6.1
			c1.1,0.1,2.1,0.5,2.7,1.3c0.7,0.8,0.9,1.9,0.7,3.1c0,0,0,0,0,0L47.8,33c-0.2,1.6-1.6,2.9-3.3,2.9h-4.9v24.5
			C39.6,62.4,38.1,64,36.2,64z M18.2,24.9c-0.1,0-0.4,0.2-0.4,0.6v7c0,0.4,0.2,0.6,0.4,0.6h8.2c0.8,0,1.5,0.7,1.5,1.5v25.9
			c0,0.4,0.2,0.6,0.4,0.6h7.9c0.1,0,0.4-0.2,0.4-0.6v-26c0-0.8,0.7-1.5,1.5-1.5h6.4c0.2,0,0.3-0.1,0.4-0.4l1.3-6.9
			c0-0.3,0-0.5-0.1-0.7c-0.1-0.1-0.2-0.2-0.4-0.2l-7.5,0c-0.8,0-1.5-0.7-1.5-1.5V16c0-1.8,0.3-3.6,3.5-3.6h4.2c0.1,0,0.4-0.2,0.4-0.6
			V3.6c0-0.4-0.2-0.6-0.4-0.6h-6c-6.3,0-10.4,4.8-10.4,12.1v8.2c0,0.8-0.7,1.5-1.5,1.5H18.2z" fill="#949494"></path></g></svg>