<svg xmlns:xlink="http://www.w3.org/1999/xlink" xmlns="http://www.w3.org/2000/svg" aria-hidden="true" role="img" focusable="false" viewBox="0 0 64 64" width="12"  height="12" >
				<path d="M58.9,8.4C55.6,4.9,51.2,3,46.5,3c-4.7,0-9.1,1.9-12.4,5.4l-2.2,2.3l-2.2-2.4C26.3,5,21.8,3.1,17.3,3.1
					C10.8,3.1,5.1,6.6,2,12.7C-1.6,19.8-0.2,28.9,5.4,35l23.1,24.5c0.9,1,2.2,1.5,3.5,1.5c0,0,0,0,0,0c1.3,0,2.6-0.6,3.5-1.6l23.4-25.1
					c3.3-3.5,5.1-8.1,5.1-13C64,16.4,62.2,11.8,58.9,8.4z M56.8,32.3L33.3,57.4C33,57.8,32.5,58,32,58c0,0,0,0,0,0c-0.5,0-1-0.2-1.3-0.6
					L7.6,32.9C2.8,27.8,1.6,20,4.7,14c2.6-5,7.3-8,12.6-8c3.7,0,7.4,1.6,10.1,4.4l4.4,4.7l4.4-4.7C39,7.6,42.6,6,46.5,6
					c3.9,0,7.5,1.6,10.2,4.5c2.8,2.9,4.3,6.8,4.3,10.9C61,25.5,59.5,29.4,56.8,32.3z" fill="#EADDC7"></path>
				</svg>