<svg xmlns:xlink="http://www.w3.org/1999/xlink" aria-hidden="true" role="img" focusable="false" width="32" height="29.53846153846154" fill="currentColor" viewBox="0 0 13 12" xmlns="http://www.w3.org/2000/svg"><path d="M6.70482 2.89996C5.00125 2.89996 3.62714 4.26262 3.62714 5.95199C3.62714 7.64137 5.00125 9.00402 6.70482 9.00402C8.40839 9.00402 9.7825 7.64137 9.7825 5.95199C9.7825 4.26262 8.40839 2.89996 6.70482 2.89996ZM6.70482 7.93621C5.60393 7.93621 4.70393 7.04637 4.70393 5.95199C4.70393 4.85762 5.60125 3.96777 6.70482 3.96777C7.80839 3.96777 8.70571 4.85762 8.70571 5.95199C8.70571 7.04637 7.80571 7.93621 6.70482 7.93621ZM10.6263 2.77512C10.6263 3.1709 10.3048 3.48699 9.90839 3.48699C9.50929 3.48699 9.19054 3.16824 9.19054 2.77512C9.19054 2.38199 9.51196 2.06324 9.90839 2.06324C10.3048 2.06324 10.6263 2.38199 10.6263 2.77512ZM12.6646 3.49762C12.6191 2.54402 12.3995 1.69934 11.695 1.0034C10.9932 0.307461 10.1414 0.0896484 9.17982 0.0418359C8.18875 -0.0139453 5.21821 -0.0139453 4.22714 0.0418359C3.26821 0.0869922 2.41643 0.304805 1.71196 1.00074C1.0075 1.69668 0.790536 2.54137 0.742322 3.49496C0.686072 4.47777 0.686072 7.42355 0.742322 8.40637C0.787857 9.35996 1.0075 10.2046 1.71196 10.9006C2.41643 11.5965 3.26554 11.8143 4.22714 11.8621C5.21821 11.9179 8.18875 11.9179 9.17982 11.8621C10.1414 11.817 10.9932 11.5992 11.695 10.9006C12.3968 10.2046 12.6164 9.35996 12.6646 8.40637C12.7209 7.42355 12.7209 4.48043 12.6646 3.49762ZM11.3843 9.4609C11.1754 9.98152 10.7709 10.3826 10.2432 10.5925C9.45304 10.9032 7.57804 10.8315 6.70482 10.8315C5.83161 10.8315 3.95393 10.9006 3.16643 10.5925C2.64143 10.3853 2.23696 9.98418 2.02536 9.4609C1.71196 8.67731 1.78429 6.81793 1.78429 5.95199C1.78429 5.08606 1.71464 3.22402 2.02536 2.44309C2.23429 1.92246 2.63875 1.52137 3.16643 1.31152C3.95661 1.00074 5.83161 1.07246 6.70482 1.07246C7.57804 1.07246 9.45572 1.0034 10.2432 1.31152C10.7682 1.51871 11.1727 1.9198 11.3843 2.44309C11.6977 3.22668 11.6254 5.08606 11.6254 5.95199C11.6254 6.81793 11.6977 8.67996 11.3843 9.4609Z" fill="#949494"></path></svg>