<svg xmlns:xlink="http://www.w3.org/1999/xlink" xmlns="http://www.w3.org/2000/svg" aria-hidden="true" role="img" focusable="false" viewBox="0 0 64 64" fill="currentColor" width="12"  height="12" ><path d="M63.4,58.6L44.7,43.4c3.5-4.4,5.4-9.8,5.4-15.5c0-6.7-2.6-13-7.3-17.7c-9.8-9.8-25.7-9.8-35.5,0C2.6,14.9,0,21.1,0,27.8
						c0,6.7,2.6,13,7.3,17.7c4.9,4.9,11.3,7.3,17.7,7.3c6.4,0,12.8-2.4,17.7-7.3l18.8,15.3c0.3,0.2,0.6,0.3,0.9,0.3
						c0.4,0,0.9-0.2,1.2-0.6C64.2,60,64.1,59.1,63.4,58.6z M9.5,43.4C5.3,39.3,3,33.7,3,27.8s2.3-11.4,6.5-15.6c4.3-4.3,10-6.5,15.6-6.5
						c5.7,0,11.3,2.2,15.6,6.5c4.2,4.2,6.5,9.7,6.5,15.6s-2.3,11.4-6.5,15.6C32.1,52,18.1,52,9.5,43.4z" fill="#EADDC7"></path></svg>