<svg xmlns:xlink="http://www.w3.org/1999/xlink" xmlns="http://www.w3.org/2000/svg" aria-hidden="true" role="img" focusable="false" viewBox="0 0 64 64" width="32"  height="32" ><g fill="#949494"><path d="M20.7,58.3c-7.2,0-14.2-2.1-20-6c-0.6-0.4-0.8-1.1-0.6-1.8c0.2-0.7,0.9-1,1.6-1c0.9,0.1,1.8,0.2,2.8,0.2c4.1,0,8-1,11.5-3 c-4.2-1.3-7.7-4.7-9.1-9.1c-0.2-0.5,0-1.1,0.3-1.5c0.2-0.2,0.4-0.3,0.6-0.4c-3.3-2.6-5.4-6.6-5.4-11v-0.1c0-0.5,0.3-1,0.7-1.3
			c0.5-0.3,1-0.3,1.5,0c0,0,0.1,0,0.1,0c-1.4-2.2-2.2-4.8-2.2-7.6c0-2.6,0.6-4.9,1.9-7.1c0.2-0.4,0.7-0.7,1.2-0.7
			c0.5,0,1,0.2,1.3,0.5c5.7,7,14,11.4,22.9,12.3c0-0.4-0.1-0.8-0.1-1.2c0-7.7,6.3-14,14-14c3.6,0,7,1.4,9.6,3.9
			c2.2-0.5,4.4-1.4,6.7-2.7c0.5-0.3,1.2-0.3,1.7,0.1c0.5,0.4,0.7,1,0.5,1.6c-0.4,1.3-1.1,2.6-1.9,3.7c0.5-0.2,1-0.4,1.5-0.6
			c0.6-0.3,1.3-0.1,1.8,0.4s0.5,1.2,0.1,1.8c-1.6,2.4-3.6,4.5-5.9,6.4c0,0.3,0,0.6,0,0.9C57.8,39.4,43.9,58.3,20.7,58.3z M7.4,52.6
			c4.1,1.8,8.6,2.7,13.2,2.7C42,55.3,54.8,38,54.8,21.2c0-0.5,0-1-0.1-1.4c-0.1-0.5,0.2-1.1,0.6-1.4c0.9-0.7,1.8-1.4,2.6-2.2
			c-0.8,0.2-1.7,0.3-2.5,0.4c-0.7,0.1-1.4-0.3-1.6-1s0-1.4,0.6-1.8c1-0.6,1.9-1.4,2.7-2.3c-1.4,0.5-2.7,0.9-4.1,1.1
			c-0.5,0.1-1-0.1-1.4-0.4c-2.1-2.3-5-3.5-8-3.5c-6.1,0-11,4.9-11,11c0,0.8,0.1,1.6,0.3,2.5c0.1,0.5,0,0.9-0.3,1.3S31.9,24,31.5,24
			c-9.7-0.4-18.8-4.7-25.4-11.7c-0.4,1.1-0.6,2.3-0.6,3.6c0,3.7,1.8,7.1,4.9,9.2c0.6,0.4,0.8,1.1,0.6,1.7s-0.8,1.1-1.5,1
			c-1.3,0-2.6-0.3-3.9-0.7c0.9,4.2,4.2,7.7,8.6,8.6c0.7,0.1,1.2,0.7,1.2,1.4c0,0.7-0.5,1.3-1.1,1.5c-1.3,0.3-2.5,0.5-3.6,0.5
			c1.9,3.3,5.4,5.4,9.3,5.4c0.6,0,1.2,0.4,1.4,1s0,1.3-0.5,1.7C17,50.2,12.3,52.1,7.4,52.6z" fill="#949494"></path></g></svg>