<svg xmlns:xlink="http://www.w3.org/1999/xlink" xmlns="http://www.w3.org/2000/svg" fill="#EADDC7" width="48" height="48" viewBox="0 0 48 48"><title>tags</title><path d="M37.2 19.2c-1.985 0-3.6-1.615-3.6-3.6s1.615-3.6 3.6-3.6 3.6 1.615 3.6 3.6-1.615 3.6-3.6 3.6zM37.2 14.4c-0.662 0-1.2 0.538-1.2 1.2s0.538 1.2 1.2 1.2 1.2-0.538 1.2-1.2-0.538-1.2-1.2-1.2zM42 7.2h-8.4c-1.652 0-3.778 0.881-4.945 2.048l-18.206 18.206c-0.678 0.678-1.052 1.582-1.052 2.546s0.373 1.867 1.052 2.545l6.245 6.245-2.629 1.518c-0.275 0.159-0.599 0.2-0.91 0.117s-0.57-0.281-0.729-0.556l-8.631-14.949c-0.331-0.573-0.134-1.308 0.439-1.639l19.166-11.065c0.574-0.331 0.771-1.065 0.439-1.639s-1.065-0.77-1.639-0.439l-19.166 11.065c-0.83 0.479-1.425 1.256-1.675 2.187s-0.123 1.901 0.357 2.731l8.631 14.949c0.479 0.83 1.256 1.425 2.187 1.675 0.312 0.083 0.628 0.125 0.942 0.125 0.623 0 1.237-0.163 1.789-0.482l3.186-1.839 1.804 1.804c0.678 0.678 1.582 1.052 2.546 1.052s1.867-0.373 2.546-1.052l18.206-18.206c1.168-1.168 2.048-3.294 2.048-4.946v-8.4c0-1.985-1.615-3.6-3.6-3.6zM43.2 19.2c0 0.996-0.641 2.544-1.346 3.248l-18.206 18.206c-0.225 0.225-0.526 0.348-0.848 0.348s-0.624-0.124-0.848-0.348l-9.806-9.806c-0.225-0.225-0.349-0.526-0.349-0.848s0.124-0.624 0.349-0.848l18.206-18.206c0.704-0.704 2.252-1.346 3.248-1.346h8.4c0.662 0 1.2 0.538 1.2 1.2v8.4z" fill="#EADDC7"></path></svg>